<svg width="20" height="21" viewBox="0 0 20 21" fill="none" xmlns="http://www.w3.org/2000/svg">
<path d="M12.025 16.1834C11.8667 16.1834 11.7083 16.1251 11.5833 16.0001C11.3417 15.7584 11.3417 15.3584 11.5833 15.1168L16.2 10.5001L11.5833 5.88343C11.3417 5.64176 11.3417 5.24176 11.5833 5.0001C11.825 4.75843 12.225 4.75843 12.4667 5.0001L17.525 10.0584C17.7667 10.3001 17.7667 10.7001 17.525 10.9418L12.4667 16.0001C12.3417 16.1251 12.1834 16.1834 12.025 16.1834Z" fill="#6C7278"/>
<path d="M16.9417 11.125H2.91675C2.57508 11.125 2.29175 10.8417 2.29175 10.5C2.29175 10.1583 2.57508 9.875 2.91675 9.875H16.9417C17.2834 9.875 17.5667 10.1583 17.5667 10.5C17.5667 10.8417 17.2834 11.125 16.9417 11.125Z" fill="#6C7278"/>
</svg>
