<svg width="18" height="18" viewBox="0 0 18 18" fill="none" xmlns="http://www.w3.org/2000/svg">
<path d="M6.60758 1.5L3.89258 4.2225" stroke="#1A1C1E" stroke-width="1.5" stroke-miterlimit="10" stroke-linecap="round" stroke-linejoin="round"/>
<path d="M11.3926 1.5L14.1076 4.2225" stroke="#1A1C1E" stroke-width="1.5" stroke-miterlimit="10" stroke-linecap="round" stroke-linejoin="round"/>
<path d="M1.5 5.8877C1.5 4.5002 2.2425 4.3877 3.165 4.3877H14.835C15.7575 4.3877 16.5 4.5002 16.5 5.8877C16.5 7.5002 15.7575 7.3877 14.835 7.3877H3.165C2.2425 7.3877 1.5 7.5002 1.5 5.8877Z" stroke="#1A1C1E" stroke-width="1.5"/>
<path d="M7.32007 10.5V13.1625" stroke="#1A1C1E" stroke-width="1.5" stroke-linecap="round"/>
<path d="M10.77 10.5V13.1625" stroke="#1A1C1E" stroke-width="1.5" stroke-linecap="round"/>
<path d="M2.625 7.5L3.6825 13.98C3.9225 15.435 4.5 16.5 6.645 16.5H11.1675C13.5 16.5 13.845 15.48 14.115 14.07L15.375 7.5" stroke="#1A1C1E" stroke-width="1.5" stroke-linecap="round"/>
</svg>
