<svg width="25" height="25" viewBox="0 0 25 25" fill="none" xmlns="http://www.w3.org/2000/svg">
<path d="M20.8767 8.32043L13.1767 12.7804C12.8667 12.9604 12.4767 12.9604 12.1567 12.7804L4.45672 8.32043C3.90672 8.00043 3.76672 7.25043 4.18672 6.78043C4.47672 6.45043 4.80672 6.18043 5.15672 5.99043L10.5767 2.99043C11.7367 2.34043 13.6167 2.34043 14.7767 2.99043L20.1967 5.99043C20.5467 6.18043 20.8767 6.46043 21.1667 6.78043C21.5667 7.25043 21.4267 8.00043 20.8767 8.32043Z" fill="#EA7E41"/>
<path d="M12.0967 14.6399V21.4599C12.0967 22.2199 11.3267 22.7199 10.6467 22.3899C8.58673 21.3799 5.11673 19.4899 5.11673 19.4899C3.89673 18.7999 2.89673 17.0599 2.89673 15.6299V10.4699C2.89673 9.67988 3.72673 9.17988 4.40673 9.56988L11.5967 13.7399C11.8967 13.9299 12.0967 14.2699 12.0967 14.6399Z" fill="#EA7E41"/>
<path d="M13.2368 14.6399V21.4599C13.2368 22.2199 14.0068 22.7199 14.6868 22.3899C16.7468 21.3799 20.2168 19.4899 20.2168 19.4899C21.4368 18.7999 22.4368 17.0599 22.4368 15.6299V10.4699C22.4368 9.67988 21.6068 9.17988 20.9268 9.56988L13.7368 13.7399C13.4368 13.9299 13.2368 14.2699 13.2368 14.6399Z" fill="#EA7E41"/>
</svg>
