<svg width="17" height="16" viewBox="0 0 17 16" fill="none" xmlns="http://www.w3.org/2000/svg">
<path d="M11.1663 8.60016V11.4002C11.1663 13.7335 10.233 14.6668 7.89967 14.6668H5.09967C2.76634 14.6668 1.83301 13.7335 1.83301 11.4002V8.60016C1.83301 6.26683 2.76634 5.3335 5.09967 5.3335H7.89967C10.233 5.3335 11.1663 6.26683 11.1663 8.60016Z" stroke="#1A1C1E" stroke-width="1.5" stroke-linecap="round" stroke-linejoin="round"/>
<path d="M15.1663 4.60016V7.40016C15.1663 9.7335 14.233 10.6668 11.8997 10.6668H11.1663V8.60016C11.1663 6.26683 10.233 5.3335 7.89967 5.3335H5.83301V4.60016C5.83301 2.26683 6.76634 1.3335 9.09967 1.3335H11.8997C14.233 1.3335 15.1663 2.26683 15.1663 4.60016Z" stroke="#1A1C1E" stroke-width="1.5" stroke-linecap="round" stroke-linejoin="round"/>
</svg>
