<svg width="20" height="20" viewBox="0 0 20 20" fill="none" xmlns="http://www.w3.org/2000/svg">
<path d="M6.923 4.83286C7.23076 4.26394 7.69016 3.79143 8.2502 3.46778C8.81024 3.14414 9.44901 2.98202 10.0956 2.99942C10.7422 3.01683 11.3713 3.21307 11.9131 3.56637C12.455 3.91967 12.8883 4.41621 13.165 5.00086C12.4366 5.01739 11.7288 5.24569 11.1281 5.65786C10.5273 6.07003 10.0596 6.64824 9.782 7.32186C9.52621 6.89539 9.21964 6.50151 8.869 6.14886C8.30556 5.59575 7.64615 5.14981 6.923 4.83286ZM16.992 8.99986C17.049 8.1464 16.8126 7.29909 16.3221 6.59834C15.8316 5.89759 15.1164 5.38547 14.295 5.14686C14.0255 4.29297 13.5074 3.53884 12.8071 2.98088C12.1068 2.42292 11.256 2.08648 10.3634 2.01455C9.4709 1.94262 8.57719 2.13848 7.79655 2.5771C7.01591 3.01571 6.38379 3.67715 5.981 4.47686C5.58318 4.3532 5.17807 4.25435 4.768 4.18086C4.07439 4.05603 3.37074 3.99544 2.666 3.99986C2.60464 4.00098 2.5433 4.00298 2.482 4.00586H2.478C2.35575 4.01322 2.24043 4.0651 2.15383 4.1517C2.06724 4.23829 2.01536 4.35361 2.008 4.47586V4.47686C1.99973 4.70111 1.99939 4.92559 2.007 5.14986C2.02 5.55886 2.063 6.12686 2.179 6.76886C2.302 7.45086 2.51 8.23286 2.864 8.99886H2.5C2.36739 8.99886 2.24021 9.05154 2.14645 9.14531C2.05268 9.23908 2 9.36625 2 9.49886V9.99886C2 10.6889 2.088 11.3589 2.252 11.9989H17.748C17.916 11.3455 18.0007 10.6735 18 9.99886V9.49886C18 9.36625 17.9473 9.23908 17.8536 9.14531C17.7598 9.05154 17.6326 8.99886 17.5 8.99886L16.992 8.99986ZM3.984 8.99986C3.55 8.21786 3.302 7.36086 3.164 6.59186C3.06956 6.06676 3.0154 5.53521 3.002 5.00186L3.116 5.00586C3.488 5.01886 4.006 5.05886 4.59 5.16486C5.77 5.37786 7.156 5.84986 8.162 6.85586C8.778 7.47186 9.195 8.23186 9.475 8.99986H7.708L5.854 7.14586C5.80751 7.09944 5.75234 7.06263 5.69162 7.03753C5.63091 7.01243 5.56584 6.99954 5.50015 6.99958C5.43445 6.99963 5.3694 7.01262 5.30873 7.0378C5.24805 7.06298 5.19292 7.09987 5.1465 7.14636C5.10008 7.19285 5.06327 7.24803 5.03817 7.30874C5.01307 7.36945 5.00018 7.43452 5.00022 7.50021C5.00027 7.56591 5.01325 7.63096 5.03844 7.69164C5.06362 7.75232 5.10051 7.80744 5.147 7.85386L6.294 8.99986H3.984ZM10.532 8.99986C10.5232 8.97281 10.5142 8.9458 10.505 8.91886C10.4832 8.5416 10.5395 8.1639 10.6702 7.80933C10.8009 7.45476 11.0033 7.13094 11.2647 6.85806C11.5261 6.58519 11.841 6.36913 12.1896 6.22335C12.5382 6.07758 12.9132 6.00522 13.291 6.0108C13.6689 6.01638 14.0415 6.09978 14.3857 6.25578C14.7299 6.41179 15.0383 6.63706 15.2915 6.91753C15.5448 7.198 15.7375 7.52766 15.8577 7.88593C15.9778 8.24421 16.0229 8.6234 15.99 8.99986H10.532ZM10 17.9999C8.40622 17.9998 6.84875 17.5239 5.52715 16.6331C4.20556 15.7423 3.18004 14.4772 2.582 12.9999H17.419C16.8209 14.4773 15.7952 15.7426 14.4734 16.6334C13.1516 17.5242 11.594 18 10 17.9999Z" fill="black"/>
</svg>
