<svg width="24" height="24" viewBox="0 0 24 24" fill="none" xmlns="http://www.w3.org/2000/svg">
<circle cx="12" cy="12" r="12" fill="#F9F9F9"/>
<path d="M8.52391 10.9224C8.77345 10.1674 9.25503 9.51052 9.89997 9.04545C10.5449 8.58037 11.3202 8.33086 12.1154 8.33249C13.0167 8.33249 13.8316 8.65249 14.4716 9.17622L16.334 7.31436C15.1991 6.32502 13.7447 5.71436 12.1154 5.71436C9.59271 5.71436 7.42098 7.15329 6.37671 9.26102L8.52391 10.9224Z" fill="#EA4335"/>
<path d="M14.2702 15.3213C13.6888 15.6962 12.9507 15.8962 12.1155 15.8962C11.3235 15.8979 10.5511 15.6503 9.90764 15.1887C9.26413 14.7271 8.78215 14.0747 8.52991 13.324L6.37524 14.9597C6.90391 16.0297 7.72205 16.9301 8.73675 17.5584C9.75145 18.1868 10.922 18.518 12.1155 18.5144C13.6798 18.5144 15.1742 17.9581 16.2936 16.9144L14.2707 15.3213H14.2702Z" fill="#34A853"/>
<path d="M16.2936 16.9144C17.4643 15.8221 18.2243 14.1966 18.2243 12.1144C18.2243 11.7358 18.1661 11.3288 18.0792 10.9507H12.1155V13.4238H15.548C15.3789 14.2552 14.924 14.899 14.2707 15.3214L16.2936 16.9144Z" fill="#4285F4"/>
<path d="M8.52979 13.3239C8.39932 12.934 8.33303 12.5255 8.33353 12.1143C8.33353 11.6973 8.40019 11.2967 8.52393 10.9223L6.37673 9.26099C5.93746 10.1478 5.71102 11.1247 5.71539 12.1143C5.71539 13.1383 5.95273 14.1037 6.37513 14.9597L8.52979 13.3239Z" fill="#FBBC05"/>
</svg>
