<svg width="32" height="32" viewBox="0 0 32 32" fill="none" xmlns="http://www.w3.org/2000/svg">
<path d="M7.28 24.6524V20.7591C7.28 19.4658 8.29334 18.3058 9.73334 18.3058C11.0267 18.3058 12.1867 19.3191 12.1867 20.7591V24.5058C12.1867 27.1058 10.0267 29.2658 7.42667 29.2658C4.82667 29.2658 2.66667 27.0924 2.66667 24.5058V16.2924C2.52 8.79909 8.44 2.73242 15.9333 2.73242C23.4267 2.73242 29.3333 8.79909 29.3333 16.1458V24.3591C29.3333 26.9591 27.1733 29.1191 24.5733 29.1191C21.9733 29.1191 19.8133 26.9591 19.8133 24.3591V20.6124C19.8133 19.3191 20.8267 18.1591 22.2667 18.1591C23.56 18.1591 24.72 19.1724 24.72 20.6124V24.6524" stroke="#1A1C1E" stroke-width="2.5" stroke-linecap="round" stroke-linejoin="round"/>
</svg>
