<svg width="18" height="19" viewBox="0 0 18 19" fill="none" xmlns="http://www.w3.org/2000/svg">
<path d="M8.0625 2.33773C8.5875 1.89523 9.435 1.89523 9.945 2.33773L11.13 3.35023C11.355 3.53773 11.7825 3.69523 12.0825 3.69523H13.3575C14.1525 3.69523 14.805 4.34773 14.805 5.14273V6.41773C14.805 6.71773 14.9625 7.13773 15.15 7.36273L16.1625 8.54773C16.605 9.07273 16.605 9.92023 16.1625 10.4302L15.15 11.6152C14.9625 11.8402 14.805 12.2602 14.805 12.5602V13.8352C14.805 14.6302 14.1525 15.2827 13.3575 15.2827H12.0825C11.7825 15.2827 11.3625 15.4402 11.1375 15.6277L9.9525 16.6402C9.4275 17.0827 8.58 17.0827 8.07 16.6402L6.885 15.6277C6.66 15.4402 6.2325 15.2827 5.94 15.2827H4.6275C3.8325 15.2827 3.18 14.6302 3.18 13.8352V12.5527C3.18 12.2602 3.03 11.8327 2.8425 11.6152L1.83 10.4227C1.395 9.90523 1.395 9.06523 1.83 8.54773L2.8425 7.35523C3.03 7.13023 3.18 6.71023 3.18 6.41773V5.15023C3.18 4.35523 3.8325 3.70273 4.6275 3.70273H5.925C6.225 3.70273 6.645 3.54523 6.87 3.35773L8.0625 2.33773Z" stroke="#6C7278" stroke-width="1.5" stroke-linecap="round" stroke-linejoin="round"/>
<path d="M9 6.59766V10.2202" stroke="#6C7278" stroke-width="1.5" stroke-linecap="round" stroke-linejoin="round"/>
<path d="M8.99588 12.5H9.00262" stroke="#6C7278" stroke-width="2" stroke-linecap="round" stroke-linejoin="round"/>
</svg>
