<svg width="25" height="25" viewBox="0 0 25 25" fill="none" xmlns="http://www.w3.org/2000/svg">
<path d="M23.8263 12.5C23.8263 16.3694 20.6958 19.5 16.8263 19.5C15.193 19.5 13.6958 18.9361 12.5097 18.0028C14.143 16.7194 15.1736 14.7361 15.1736 12.5C15.1736 10.2639 14.1236 8.28055 12.5097 6.99722C13.6958 6.06389 15.193 5.5 16.8263 5.5C20.6958 5.5 23.8263 8.64999 23.8263 12.5Z" fill="#F79E1B"/>
<path d="M12.5097 6.99722C12.5097 6.99722 12.5097 6.99722 12.5097 6.99722C14.1236 8.28055 15.1736 10.2639 15.1736 12.5C15.1736 14.7361 14.143 16.7194 12.5097 18.0028L12.4902 18.0028C10.8763 16.7389 9.82634 14.7361 9.82634 12.5C9.82634 10.2639 10.8763 8.28059 12.4902 6.99726C12.4902 6.99725 12.4902 6.99728 12.4902 6.99726L12.5097 6.99722Z" fill="#FF5F00"/>
<path d="M9.82634 12.5C9.82634 10.2639 10.8763 8.28059 12.4902 6.99726C11.3041 6.06393 9.8069 5.50003 8.17357 5.50003C4.30413 5.50003 1.17358 8.63058 1.17358 12.5C1.17358 16.3695 4.30413 19.5 8.17357 19.5C9.8069 19.5 11.3041 18.9361 12.4902 18.0028C10.8763 16.7389 9.82634 14.7361 9.82634 12.5Z" fill="#EB001B"/>
</svg>
