<svg width="20" height="20" viewBox="0 0 20 20" fill="none" xmlns="http://www.w3.org/2000/svg">
<g clip-path="url(#clip0_40_53719)">
<path d="M15.0499 19.1668H16.4333C17.1333 19.1668 17.7083 18.6252 17.7916 17.9418L19.1666 4.2085H14.9999V0.833496H13.3583V4.2085H9.21659L9.46659 6.1585C10.8916 6.55016 12.2249 7.2585 13.0249 8.04183C14.2249 9.22516 15.0499 10.4502 15.0499 12.4502V19.1668ZM0.833252 18.3335V17.5002H13.3583V18.3335C13.3583 18.7835 12.9833 19.1668 12.4999 19.1668H1.66659C1.20825 19.1668 0.833252 18.7835 0.833252 18.3335ZM13.3583 12.5002C13.3583 5.8335 0.833252 5.8335 0.833252 12.5002H13.3583ZM0.833252 14.1668H13.3333V15.8335H0.833252V14.1668Z" fill="#1A1C1E"/>
</g>
<defs>
<clipPath id="clip0_40_53719">
<rect width="20" height="20" fill="white"/>
</clipPath>
</defs>
</svg>
