<svg width="33" height="32" viewBox="0 0 33 32" fill="none" xmlns="http://www.w3.org/2000/svg">
<path d="M11.6667 25.3327H11.0001C5.66673 25.3327 3.00006 23.9993 3.00006 17.3327V10.666C3.00006 5.33268 5.66673 2.66602 11.0001 2.66602H21.6667C27.0001 2.66602 29.6667 5.33268 29.6667 10.666V17.3327C29.6667 22.666 27.0001 25.3327 21.6667 25.3327H21.0001C20.5867 25.3327 20.1867 25.5327 19.9334 25.866L17.9334 28.5327C17.0534 29.706 15.6134 29.706 14.7334 28.5327L12.7334 25.866C12.5201 25.5727 12.0267 25.3327 11.6667 25.3327Z" stroke="#1A1C1E" stroke-width="2.5" stroke-miterlimit="10" stroke-linecap="round" stroke-linejoin="round"/>
<path d="M21.662 14.6667H21.6739" stroke="#1A1C1E" stroke-width="2.5" stroke-linecap="round" stroke-linejoin="round"/>
<path d="M16.3274 14.6667H16.3393" stroke="#1A1C1E" stroke-width="2.5" stroke-linecap="round" stroke-linejoin="round"/>
<path d="M10.9927 14.6667H11.0047" stroke="#1A1C1E" stroke-width="2.5" stroke-linecap="round" stroke-linejoin="round"/>
</svg>
