<svg width="24" height="25" viewBox="0 0 24 25" fill="none" xmlns="http://www.w3.org/2000/svg">
<path d="M19.17 7.13953C18.74 4.96953 17.13 4.01953 14.89 4.01953H6.10999C3.46999 4.01953 1.70999 5.33953 1.70999 8.41953V13.5695C1.70999 15.7895 2.61999 17.0895 4.11999 17.6495C4.33999 17.7295 4.57999 17.7995 4.82999 17.8395C5.22999 17.9295 5.65999 17.9695 6.10999 17.9695H14.9C17.54 17.9695 19.3 16.6495 19.3 13.5695V8.41953C19.3 7.94953 19.26 7.52953 19.17 7.13953ZM5.52999 12.4995C5.52999 12.9095 5.18999 13.2495 4.77999 13.2495C4.36999 13.2495 4.02999 12.9095 4.02999 12.4995V9.49953C4.02999 9.08953 4.36999 8.74953 4.77999 8.74953C5.18999 8.74953 5.52999 9.08953 5.52999 9.49953V12.4995ZM10.5 13.6395C9.03999 13.6395 7.85999 12.4595 7.85999 10.9995C7.85999 9.53953 9.03999 8.35953 10.5 8.35953C11.96 8.35953 13.14 9.53953 13.14 10.9995C13.14 12.4595 11.96 13.6395 10.5 13.6395ZM16.96 12.4995C16.96 12.9095 16.62 13.2495 16.21 13.2495C15.8 13.2495 15.46 12.9095 15.46 12.4995V9.49953C15.46 9.08953 15.8 8.74953 16.21 8.74953C16.62 8.74953 16.96 9.08953 16.96 9.49953V12.4995Z" fill="#EA7E41"/>
<path d="M22.3 11.4203V16.5703C22.3 19.6503 20.54 20.9803 17.89 20.9803H9.11001C8.36001 20.9803 7.69001 20.8703 7.11001 20.6503C6.64001 20.4803 6.23001 20.2303 5.90001 19.9103C5.72001 19.7403 5.86001 19.4703 6.11001 19.4703H14.89C18.59 19.4703 20.79 17.2703 20.79 13.5803V8.42028C20.79 8.18028 21.06 8.03028 21.23 8.21028C21.91 8.93028 22.3 9.98028 22.3 11.4203Z" fill="#EA7E41"/>
</svg>
