<svg width="25" height="25" viewBox="0 0 25 25" fill="none" xmlns="http://www.w3.org/2000/svg">
<path fill-rule="evenodd" clip-rule="evenodd" d="M17.9179 8.56508C17.9032 8.65998 17.8862 8.75696 17.8673 8.85661C17.2141 12.224 14.9792 13.3873 12.1251 13.3873H10.6718C10.3227 13.3873 10.0285 13.6418 9.97423 13.9875L9.01943 20.0684C8.98408 20.2955 9.15832 20.5 9.38641 20.5H11.964C12.2691 20.5 12.5284 20.2774 12.5765 19.9752L12.6018 19.8437L13.0871 16.7515L13.1183 16.5819C13.1658 16.2786 13.4257 16.0559 13.7308 16.0559H14.1163C16.6136 16.0559 18.5685 15.0379 19.1399 12.092C19.3785 10.8614 19.255 9.83384 18.6234 9.11117C18.4323 8.8933 18.1952 8.71241 17.9179 8.56508Z" fill="#298FC2"/>
<path fill-rule="evenodd" clip-rule="evenodd" d="M17.2343 8.29156C17.1344 8.2623 17.0315 8.23587 16.9259 8.21196C16.8197 8.18864 16.711 8.168 16.599 8.14988C16.2072 8.08631 15.7778 8.05617 15.3179 8.05617H11.4356C11.3399 8.05617 11.249 8.07785 11.1678 8.11706C10.9887 8.20349 10.8557 8.37369 10.8235 8.58206L9.99752 13.8344L9.97386 13.9875C10.0281 13.6418 10.3223 13.3874 10.6714 13.3874H12.1247C14.9789 13.3874 17.2137 12.2235 17.8669 8.85666C17.8864 8.75701 17.9029 8.66003 17.9175 8.56512C17.7523 8.47706 17.5733 8.40176 17.3806 8.3376C17.3329 8.32171 17.2838 8.30641 17.2343 8.29156Z" fill="#22284F"/>
<path fill-rule="evenodd" clip-rule="evenodd" d="M10.8235 8.58206C10.8557 8.37369 10.9889 8.20351 11.168 8.11766C11.2498 8.07831 11.34 8.05663 11.4357 8.05663H15.3181C15.7779 8.05663 16.2073 8.08692 16.5992 8.15049C16.7111 8.16846 16.8199 8.18925 16.9261 8.21257C17.0317 8.23633 17.1346 8.26291 17.2345 8.29202C17.284 8.30687 17.3331 8.32232 17.3812 8.33761C17.5739 8.40177 17.7531 8.47766 17.9183 8.56514C18.1126 7.32074 17.9167 6.47346 17.2466 5.70623C16.5078 4.86148 15.1745 4.5 13.4683 4.5H8.51487C8.16638 4.5 7.86907 4.75441 7.81523 5.10074L5.75211 18.2314C5.71143 18.4911 5.91097 18.7255 6.17189 18.7255H9.22989L10.8235 8.58206Z" fill="#28356A"/>
</svg>
