<svg width="24" height="25" viewBox="0 0 24 25" fill="none" xmlns="http://www.w3.org/2000/svg">
<path d="M17.53 8.27C17.46 8.26 17.39 8.26 17.32 8.27C15.77 8.22 14.54 6.95 14.54 5.39C14.54 3.8 15.83 2.5 17.43 2.5C19.02 2.5 20.32 3.79 20.32 5.39C20.31 6.95 19.08 8.22 17.53 8.27Z" fill="#4D81E7"/>
<path d="M20.79 15.2004C19.67 15.9504 18.1 16.2304 16.65 16.0404C17.03 15.2204 17.23 14.3104 17.24 13.3504C17.24 12.3504 17.02 11.4004 16.6 10.5704C18.08 10.3704 19.65 10.6504 20.78 11.4004C22.36 12.4404 22.36 14.1504 20.79 15.2004Z" fill="#4D81E7"/>
<path d="M6.43997 8.27C6.50997 8.26 6.57997 8.26 6.64997 8.27C8.19997 8.22 9.42997 6.95 9.42997 5.39C9.42997 3.79 8.13997 2.5 6.53997 2.5C4.94997 2.5 3.65997 3.79 3.65997 5.39C3.65997 6.95 4.88997 8.22 6.43997 8.27Z" fill="#4D81E7"/>
<path d="M6.55 13.3496C6.55 14.3196 6.75999 15.2396 7.14 16.0696C5.73 16.2196 4.26 15.9196 3.18 15.2096C1.6 14.1596 1.6 12.4496 3.18 11.3996C4.25 10.6796 5.75999 10.3896 7.18 10.5496C6.77 11.3896 6.55 12.3396 6.55 13.3496Z" fill="#4D81E7"/>
<path d="M12.12 16.37C12.04 16.36 11.95 16.36 11.86 16.37C10.02 16.31 8.54999 14.8 8.54999 12.94C8.55999 11.04 10.09 9.5 12 9.5C13.9 9.5 15.44 11.04 15.44 12.94C15.43 14.8 13.97 16.31 12.12 16.37Z" fill="#4D81E7"/>
<path d="M8.86999 18.4396C7.35999 19.4496 7.35999 21.1096 8.86999 22.1096C10.59 23.2596 13.41 23.2596 15.13 22.1096C16.64 21.0996 16.64 19.4396 15.13 18.4396C13.42 17.2896 10.6 17.2896 8.86999 18.4396Z" fill="#4D81E7"/>
</svg>
