<svg width="25" height="25" viewBox="0 0 25 25" fill="none" xmlns="http://www.w3.org/2000/svg">
<path d="M16.3335 2.5H8.3335C4.8335 2.5 3.3335 4.5 3.3335 7.5V17.5C3.3335 20.5 4.8335 22.5 8.3335 22.5H16.3335C19.8335 22.5 21.3335 20.5 21.3335 17.5V7.5C21.3335 4.5 19.8335 2.5 16.3335 2.5ZM8.3335 12.75H12.3335C12.7435 12.75 13.0835 13.09 13.0835 13.5C13.0835 13.91 12.7435 14.25 12.3335 14.25H8.3335C7.9235 14.25 7.5835 13.91 7.5835 13.5C7.5835 13.09 7.9235 12.75 8.3335 12.75ZM16.3335 18.25H8.3335C7.9235 18.25 7.5835 17.91 7.5835 17.5C7.5835 17.09 7.9235 16.75 8.3335 16.75H16.3335C16.7435 16.75 17.0835 17.09 17.0835 17.5C17.0835 17.91 16.7435 18.25 16.3335 18.25ZM18.8335 9.75H16.8335C15.3135 9.75 14.0835 8.52 14.0835 7V5C14.0835 4.59 14.4235 4.25 14.8335 4.25C15.2435 4.25 15.5835 4.59 15.5835 5V7C15.5835 7.69 16.1435 8.25 16.8335 8.25H18.8335C19.2435 8.25 19.5835 8.59 19.5835 9C19.5835 9.41 19.2435 9.75 18.8335 9.75Z" fill="#4D81E7"/>
</svg>
