<svg width="32" height="33" viewBox="0 0 32 33" fill="none" xmlns="http://www.w3.org/2000/svg">
<path d="M10.4 30.033C6.86666 30.033 3.98666 27.1663 3.98666 23.6197V19.833C3.98666 18.9397 4.86666 18.3397 5.70666 18.633C6.05333 18.753 6.4 18.833 6.76 18.8863C6.92 18.913 7.08 18.9397 7.24 18.9397C7.44 18.9663 7.65333 18.9797 7.85333 18.9797C9.33333 18.9797 10.8 18.433 11.96 17.4863C13.0667 18.433 14.4933 18.9797 16.0133 18.9797C17.5333 18.9797 18.9467 18.4597 20.0533 17.4997C21.2 18.433 22.64 18.9797 24.1067 18.9797C24.3333 18.9797 24.5733 18.9663 24.7867 18.9397C24.9467 18.9263 25.08 18.913 25.2267 18.8863C25.6267 18.833 25.9867 18.7263 26.3467 18.6063C27.1733 18.3263 28.04 18.9397 28.04 19.8063V23.6197C28.04 27.153 25.1733 30.033 21.6267 30.033H10.4Z" fill="#1A1C1E"/>
<path d="M29.3067 11.9535L28.9333 8.4068C28.4 4.54013 26.64 2.9668 22.88 2.9668H19.8667H17.9733H14.08H12.1733H9.09334C5.33334 2.9668 3.58667 4.54013 3.04001 8.4468L2.69334 11.9668C2.56001 13.3401 2.93334 14.6735 3.74667 15.7135C4.72001 16.9801 6.21334 17.7001 7.88001 17.7001C9.49334 17.7001 11.04 16.8868 12.0133 15.5935C12.88 16.8868 14.3733 17.7001 16.0267 17.7001C17.68 17.7001 19.1333 16.9268 20.0133 15.6468C21 16.9135 22.52 17.7001 24.12 17.7001C25.8267 17.7001 27.36 16.9401 28.32 15.6068C29.0933 14.5801 29.44 13.2868 29.3067 11.9535ZM18 10.8068H17V11.8468C17 12.4068 16.5467 12.8468 16 12.8468C15.4533 12.8468 15 12.4068 15 11.8468V10.8068H14C13.4533 10.8068 13 10.3668 13 9.8068C13 9.26013 13.4533 8.8068 14 8.8068H15V7.86013C15 7.31346 15.4533 6.86013 16 6.86013C16.5467 6.86013 17 7.31346 17 7.86013V8.8068H18C18.5467 8.8068 19 9.26013 19 9.8068C19 10.3668 18.5467 10.8068 18 10.8068Z" fill="#EA7E41"/>
</svg>
