<svg width="26" height="27" viewBox="0 0 26 27" fill="none" xmlns="http://www.w3.org/2000/svg">
<path d="M22.75 11.0621H21.8999C21.6958 8.84287 20.6698 6.77995 19.0234 5.27797C17.3769 3.776 15.2286 2.94336 13 2.94336C10.7714 2.94336 8.62313 3.776 6.97664 5.27797C5.33016 6.77995 4.30423 8.84287 4.10008 11.0621H3.25C3.03451 11.0621 2.82785 11.1477 2.67548 11.3001C2.5231 11.4525 2.4375 11.6592 2.4375 11.8746C2.44107 13.8069 2.97283 15.7014 3.97527 17.3533C4.97771 19.0051 6.41268 20.3515 8.125 21.2468V21.6246C8.125 22.0556 8.29621 22.4689 8.60095 22.7737C8.9057 23.0784 9.31902 23.2496 9.75 23.2496H16.25C16.681 23.2496 17.0943 23.0784 17.399 22.7737C17.7038 22.4689 17.875 22.0556 17.875 21.6246V21.2468C19.5873 20.3515 21.0223 19.0051 22.0247 17.3533C23.0272 15.7014 23.5589 13.8069 23.5625 11.8746C23.5625 11.6592 23.4769 11.4525 23.3245 11.3001C23.1722 11.1477 22.9655 11.0621 22.75 11.0621ZM17.6191 6.2105C17.8053 6.36285 17.9837 6.52365 18.1543 6.69292C15.9914 7.45378 14.204 9.01749 13.1625 11.0601H10.1664C10.6742 9.63664 11.6091 8.40466 12.8434 7.53249C14.0777 6.66031 15.5512 6.19046 17.0625 6.18714C17.2484 6.18714 17.4342 6.19628 17.6191 6.2105ZM15.0434 11.0621C16.0285 9.58429 17.5188 8.51649 19.2349 8.05894C19.796 8.97163 20.1481 9.99725 20.2658 11.0621H15.0434ZM13 4.56214C13.652 4.56257 14.301 4.65036 14.9297 4.82316C13.3986 5.20297 11.9946 5.97969 10.8593 7.07502C9.72407 8.17036 8.89759 9.5456 8.4632 11.0621H5.73422C5.93576 9.27552 6.78775 7.62554 8.12775 6.42677C9.46775 5.228 11.202 4.56428 13 4.56214Z" fill="#C65468"/>
</svg>
